<svg xmlns="http://www.w3.org/2000/svg" data-name="Layer 1" viewBox="0 0 64 64"><path fill="#ffcb52" d="M60.815,13.812A7.815,7.815,0,1,0,46.99,18.8a10.133,10.133,0,0,1,2.365,6.47H48.313V28.4a1.045,1.045,0,0,0,1.042,1.042h2.084a1.563,1.563,0,0,0,3.125,0h2.084A1.044,1.044,0,0,0,57.689,28.4V25.272H56.648a9.7,9.7,0,0,1,2.281-6.366A7.772,7.772,0,0,0,60.815,13.812Z"/><path fill="#7083a6" d="M48.313,25.272V28.4a1.043,1.043,0,0,0,1.042,1.042h2.084A1.562,1.562,0,0,0,53,31h0a1.562,1.562,0,0,0,1.563-1.562h2.084A1.042,1.042,0,0,0,57.689,28.4V25.272Z"/><rect width="2" height="3" x="52" y="1" fill="#d98d91"/><rect width="3" height="2" x="59.632" y="4.868" fill="#d98d91" transform="rotate(-45 61.131 5.868)"/><rect width="2" height="3" x="43.868" y="4.368" fill="#d98d91" transform="rotate(-45 44.868 5.868)"/><path fill="#5993de" d="M1,62.857V51.429A3.429,3.429,0,0,1,4.429,48h9.142A3.429,3.429,0,0,1,17,51.429V62.857Z"/><circle cx="9" cy="44" r="4" fill="#e6b374"/><circle cx="24" cy="52" r="3" fill="#90aacc"/><circle cx="39" cy="20" r="3" fill="#90aacc"/><path fill="#a2bfe6" d="M46.229,53H30V51H46.229a3.77,3.77,0,0,0,1.4-7.271l-34-13.6A5.77,5.77,0,0,1,15.771,19H33v2H15.771a3.77,3.77,0,0,0-1.4,7.271l34,13.6A5.77,5.77,0,0,1,46.229,53Z"/><path fill="#ffdb87" d="M58.731,13.812H56.648a3.129,3.129,0,0,0-3.126-3.125V8.6A5.215,5.215,0,0,1,58.731,13.812Z"/></svg>