<svg xmlns="http://www.w3.org/2000/svg" data-name="Layer 1" viewBox="0 0 512 512"><g data-name="&lt;Group&gt;"><g data-name=" Group "><g data-name="&lt;Group&gt;"><g data-name="&lt;Group&gt;"><g data-name="&lt;Group&gt;"><path fill="#fdc75b" d="M318.72,278.07a115.543,115.543,0,1,1-47.82,54.89A115.164,115.164,0,0,1,318.72,278.07Z" data-name="&lt;Path&gt;"/></g><g data-name="&lt;Group&gt;"><path fill="#ed664c" d="M422.03,220.33a202.16,202.16,0,0,1-5.8,48.21,115.948,115.948,0,0,0-97.51,9.53V260.84A47.443,47.443,0,0,0,271.3,213.4a63.256,63.256,0,0,1-101.95,0,47.434,47.434,0,0,0-47.41,47.44v72.12H270.9a116.131,116.131,0,0,0-2.36,83.27,202.16,202.16,0,0,1-48.21,5.8c-111.4,0-201.7-90.3-201.7-201.7s90.3-201.7,201.7-201.7S422.03,108.93,422.03,220.33ZM273.04,129.86a52.71,52.71,0,1,0-52.71,52.71A52.711,52.711,0,0,0,273.04,129.86Z" data-name="&lt;Compound Path&gt;"/></g><g data-name="&lt;Group&gt;"><path fill="#fdc75b" d="M318.72,260.84v17.23a116.168,116.168,0,0,0-47.82,54.89H121.94V260.84a47.434,47.434,0,0,1,47.41-47.44,63.256,63.256,0,0,0,101.95,0A47.443,47.443,0,0,1,318.72,260.84Z" data-name="&lt;Path&gt;"/></g><g data-name="&lt;Group&gt;"><circle cx="220.33" cy="129.86" r="52.71" fill="#fdc75b" data-name="&lt;Path&gt;"/></g></g><g data-name="&lt;Group&gt;"><path d="M220.33,190.57a60.71,60.71,0,1,0-60.71-60.71A60.779,60.779,0,0,0,220.33,190.57Zm0-105.42a44.71,44.71,0,1,1-44.71,44.71A44.761,44.761,0,0,1,220.33,85.15Z" data-name="&lt;Compound Path&gt;"/><path d="M220.33,430.03a210.917,210.917,0,0,0,43.261-4.482A123.712,123.712,0,1,0,425.548,263.591a210.917,210.917,0,0,0,4.482-43.261A209.7,209.7,0,0,0,72.048,72.048,209.7,209.7,0,0,0,220.33,430.03ZM311,273.623A120.786,120.786,0,0,0,265.718,325H130V260.84a39.467,39.467,0,0,1,35.626-39.261,71.229,71.229,0,0,0,96.9,11.787A71.923,71.923,0,0,0,275.2,221.579,39.616,39.616,0,0,1,311,260.84ZM485.37,377.66a107.618,107.618,0,1,1-71.81-101.578h0A107.881,107.881,0,0,1,485.37,377.66ZM220.33,26.63c106.806,0,193.7,86.893,193.7,193.7a195.043,195.043,0,0,1-3.748,37.993,123.011,123.011,0,0,0-83.282,6.6V260.84c0-30.558-25.14-55.84-55.7-55.84h0a8.2,8.2,0,0,0-6.452,3.47,55.016,55.016,0,0,1-89.052-.033A8.169,8.169,0,0,0,169.35,205h0C138.795,205,114,230.282,114,260.84v72.12a7.983,7.983,0,0,0,7.94,8.04H259.484a124.074,124.074,0,0,0-1.161,69.292,195.039,195.039,0,0,1-37.993,3.743c-106.807,0-193.7-86.9-193.7-193.7S113.523,26.63,220.33,26.63Z" data-name="&lt;Compound Path&gt;"/><path d="M380.5,338.83a8.152,8.152,0,0,0,8,8.17h0l28.25-.193-38.786,37.467L358.035,364.8a8,8,0,0,0-11.061-.125l-44.38,41.659a8,8,0,1,0,10.952,11.654l38.8-36.431,20.02,19.517a8,8,0,0,0,11.149.019l45.009-43.58-.024,28.33A8.131,8.131,0,0,0,436.493,394h.007a8.134,8.134,0,0,0,8-8.148l.04-47.148a7.653,7.653,0,0,0-2.342-5.511A7.862,7.862,0,0,0,436.54,331h0l-48.04-.073A7.914,7.914,0,0,0,380.5,338.83Z" data-name="&lt;Path&gt;"/></g></g></g></g></svg>